<?xml version="1.0" encoding="UTF-8"?>
<svg id="Camada_1" data-name="Camada 1" xmlns="http://www.w3.org/2000/svg" viewBox="0 0 283.46 283.46">
  <defs>
    <style>
      .cls-1 {
        fill: #ff6500;
        fill-rule: evenodd;
      }
    </style>
  </defs>
  <path class="cls-1" d="M125.49,177.09c-.85,0-1.66-.34-2.26-.94l-31.83-31.83c-1.25-1.25-1.25-3.27,0-4.52,1.25-1.25,3.27-1.25,4.52,0l29.57,29.57,62.06-62.06c1.25-1.25,3.27-1.25,4.52,0,1.25,1.25,1.25,3.27,0,4.52l-64.32,64.32c-.6.6-1.41.94-2.26.94h0ZM141.73,233.12c-.2,0-.39-.02-.58-.05-19.57-3.65-37.42-13.05-50.26-26.48-13.12-13.73-20.35-31.04-20.35-48.74v-69.68c0-1.5,1.04-2.79,2.5-3.12,17.76-3.95,53.22-22.02,66.57-33.91,1.21-1.08,3.04-1.08,4.25,0,13.34,11.89,48.81,29.95,66.57,33.91,1.46.32,2.5,1.62,2.5,3.12v69.67c0,17.7-7.23,35.01-20.35,48.74-12.84,13.43-30.68,22.83-50.26,26.48-.2.04-.39.06-.59.06h0ZM76.93,90.69v67.17c0,32.71,27.22,61.57,64.8,68.82,37.58-7.25,64.8-36.11,64.8-68.82v-67.17c-18.49-4.91-50.06-20.97-64.8-32.96-14.74,11.98-46.31,28.05-64.8,32.96h0ZM141.73,258.64c-.2,0-.39-.02-.58-.05-25.05-4.67-47.88-16.7-64.29-33.87-16.76-17.53-25.98-39.62-25.98-62.2v-89.83c0-1.5,1.04-2.79,2.5-3.12,23.01-5.12,68.95-28.53,86.24-43.93,1.21-1.08,3.04-1.08,4.25,0,17.29,15.4,63.23,38.81,86.24,43.93,1.46.32,2.5,1.62,2.5,3.12v89.83c0,22.58-9.23,44.67-25.98,62.2-16.42,17.17-39.25,29.2-64.29,33.87-.2.04-.39.05-.59.05h0ZM57.26,75.21v87.32c0,42.66,35.49,80.29,84.47,89.67,48.98-9.38,84.47-47.01,84.47-89.67v-87.32c-23.88-6.13-65.65-27.39-84.47-42.97-18.83,15.58-60.6,36.84-84.47,42.97h0Z"/>
</svg>