<?xml version="1.0" encoding="UTF-8"?>
<svg id="Camada_1" data-name="Camada 1" xmlns="http://www.w3.org/2000/svg" viewBox="0 0 283.46 283.46">
  <defs>
    <style>
      .cls-1 {
        fill: #ff6500;
      }
    </style>
  </defs>
  <path class="cls-1" d="M56.59,191.47c-.22,0-.45-.01-.69-.05-10.92-1.58-21.4-5-31.13-10.19-2.33-1.24-3.21-4.14-1.97-6.47,1.25-2.32,4.13-3.21,6.47-1.97,8.75,4.67,18.17,7.75,27.99,9.16,2.61.38,4.43,2.8,4.05,5.42-.34,2.38-2.39,4.1-4.73,4.1Z"/>
  <path class="cls-1" d="M226.87,191.47c-2.34,0-4.38-1.72-4.73-4.1-.37-2.61,1.44-5.04,4.05-5.42,9.83-1.41,19.24-4.49,27.99-9.16,2.35-1.24,5.22-.35,6.47,1.97,1.24,2.33.36,5.23-1.97,6.47-9.73,5.19-20.21,8.61-31.13,10.19-.23.03-.46.04-.69.04Z"/>
  <path class="cls-1" d="M176.88,148.56c-.9,0-1.8-.25-2.6-.77-2.21-1.44-2.84-4.4-1.4-6.61,6.77-10.39,18.21-16.59,30.61-16.59,2.64,0,4.78,2.14,4.78,4.78s-2.14,4.78-4.78,4.78c-9.16,0-17.61,4.58-22.6,12.25-.91,1.41-2.44,2.17-4.01,2.17Z"/>
  <path class="cls-1" d="M214.09,134.14c-16.94,0-31.25-14.31-31.25-31.25s14.31-31.25,31.25-31.25,31.25,14.31,31.25,31.25-14.31,31.25-31.25,31.25ZM214.09,81.21c-11.76,0-21.69,9.93-21.69,21.69s9.94,21.69,21.69,21.69,21.69-9.93,21.69-21.69-9.93-21.69-21.69-21.69Z"/>
  <path class="cls-1" d="M256.44,165.91c-2.64,0-4.78-2.14-4.78-4.78,0-14.88-12.11-26.98-26.98-26.98-2.64,0-4.78-2.14-4.78-4.78s2.14-4.78,4.78-4.78c20.15,0,36.54,16.4,36.54,36.54,0,2.64-2.14,4.78-4.78,4.78Z"/>
  <path class="cls-1" d="M224.67,134.14h-21.18c-2.64,0-4.78-2.14-4.78-4.78s2.14-4.78,4.78-4.78h21.18c2.64,0,4.78,2.14,4.78,4.78s-2.14,4.78-4.78,4.78Z"/>
  <path class="cls-1" d="M256.44,181.79c-2.64,0-4.78-2.14-4.78-4.78v-15.88c0-2.64,2.14-4.78,4.78-4.78s4.78,2.14,4.78,4.78v15.88c0,2.64-2.14,4.78-4.78,4.78Z"/>
  <path class="cls-1" d="M85.26,185.32c-2.64,0-4.78-2.14-4.78-4.78,0-25.99,21.14-47.13,47.13-47.13,2.64,0,4.78,2.14,4.78,4.78s-2.14,4.78-4.78,4.78c-20.72,0-37.57,16.85-37.57,37.57,0,2.64-2.14,4.78-4.78,4.78Z"/>
  <path class="cls-1" d="M155.85,142.97h-28.24c-2.64,0-4.78-2.14-4.78-4.78s2.14-4.78,4.78-4.78h28.24c2.64,0,4.78,2.14,4.78,4.78s-2.14,4.78-4.78,4.78Z"/>
  <path class="cls-1" d="M106.58,148.56c-1.56,0-3.09-.76-4.01-2.17-5-7.67-13.44-12.25-22.6-12.25-2.64,0-4.78-2.14-4.78-4.78s2.14-4.78,4.78-4.78c12.4,0,23.84,6.2,30.61,16.59,1.44,2.21.82,5.17-1.4,6.61-.81.52-1.71.77-2.6.77Z"/>
  <path class="cls-1" d="M85.26,206.5c-2.64,0-4.78-2.14-4.78-4.78v-21.18c0-2.64,2.14-4.78,4.78-4.78s4.78,2.14,4.78,4.78v21.18c0,2.64-2.14,4.78-4.78,4.78Z"/>
  <path class="cls-1" d="M141.73,142.97c-21.72,0-40.08-18.35-40.08-40.08s18.35-40.08,40.08-40.08,40.08,18.35,40.08,40.08-18.35,40.08-40.08,40.08ZM141.73,72.38c-16.54,0-30.52,13.98-30.52,30.52s13.98,30.52,30.52,30.52,30.52-13.98,30.52-30.52-13.98-30.52-30.52-30.52Z"/>
  <path class="cls-1" d="M198.2,185.32c-2.64,0-4.78-2.14-4.78-4.78,0-20.72-16.85-37.57-37.57-37.57-2.64,0-4.78-2.14-4.78-4.78s2.14-4.78,4.78-4.78c25.99,0,47.13,21.14,47.13,47.13,0,2.64-2.14,4.78-4.78,4.78Z"/>
  <path class="cls-1" d="M198.2,206.5c-2.64,0-4.78-2.14-4.78-4.78v-21.18c0-2.64,2.14-4.78,4.78-4.78s4.78,2.14,4.78,4.78v21.18c0,2.64-2.14,4.78-4.78,4.78Z"/>
  <path class="cls-1" d="M141.73,220.65c-20.17,0-40.33-4.9-58.72-14.71-2.33-1.25-3.21-4.14-1.97-6.47,1.25-2.32,4.12-3.21,6.47-1.97,33.95,18.11,74.49,18.11,108.44,0,2.34-1.24,5.23-.35,6.47,1.97,1.24,2.33.36,5.22-1.97,6.47-18.39,9.8-38.56,14.71-58.73,14.71Z"/>
  <path class="cls-1" d="M69.38,134.14c-16.94,0-31.25-14.31-31.25-31.25s14.31-31.25,31.25-31.25,31.25,14.31,31.25,31.25-14.31,31.25-31.25,31.25ZM69.38,81.21c-11.76,0-21.69,9.93-21.69,21.69s9.93,21.69,21.69,21.69,21.69-9.93,21.69-21.69-9.93-21.69-21.69-21.69Z"/>
  <path class="cls-1" d="M27.03,165.91c-2.64,0-4.78-2.14-4.78-4.78,0-20.15,16.4-36.54,36.54-36.54,2.64,0,4.78,2.14,4.78,4.78s-2.14,4.78-4.78,4.78c-14.88,0-26.98,12.1-26.98,26.98,0,2.64-2.14,4.78-4.78,4.78Z"/>
  <path class="cls-1" d="M79.97,134.14h-21.18c-2.64,0-4.78-2.14-4.78-4.78s2.14-4.78,4.78-4.78h21.18c2.64,0,4.78,2.14,4.78,4.78s-2.14,4.78-4.78,4.78Z"/>
  <path class="cls-1" d="M27.03,181.79c-2.64,0-4.78-2.14-4.78-4.78v-15.88c0-2.64,2.14-4.78,4.78-4.78s4.78,2.14,4.78,4.78v15.88c0,2.64-2.14,4.78-4.78,4.78Z"/>
</svg>