<?xml version="1.0" encoding="UTF-8"?>
<svg id="Camada_1" data-name="Camada 1" xmlns="http://www.w3.org/2000/svg" viewBox="0 0 1920 1080">
  <defs>
    <style>
      .cls-1 {
        font-family: Satoshi-Light, Satoshi;
        font-weight: 300;
      }

      .cls-2, .cls-3, .cls-4 {
        font-family: Satoshi-Bold, Satoshi;
        font-weight: 700;
      }

      .cls-5, .cls-6 {
        fill: #00342f;
      }

      .cls-3 {
        letter-spacing: 0em;
      }

      .cls-4 {
        letter-spacing: -.03em;
      }

      .cls-6 {
        font-size: 210.7px;
      }
    </style>
  </defs>
  <text class="cls-6" transform="translate(623.64 605.47)"><tspan class="cls-4" x="0" y="0">R</tspan><tspan class="cls-2" x="133.79" y="0">e</tspan><tspan class="cls-3" x="251.15" y="0">g</tspan><tspan class="cls-2" x="365.56" y="0">ener</tspan><tspan class="cls-1" x="807.17" y="0">AI</tspan></text>
  <g>
    <g>
      <path class="cls-5" d="M485.57,571.58c-40.02,18.36-74.62,46.58-100.42,82.2-6.99-3.17-13.59-6.62-19.98-11.07,35.75-41.98,87.38-77.09,141.16-89.45,15.81-3.63,34.04-5.79,50.19-5.26.06,1.35-.05,2.75-.33,4.06-25.09,2.95-47.71,9.01-70.63,19.52Z"/>
      <path class="cls-5" d="M431.92,663.65c-11.47-.4-22.57-1.82-33.25-5.27,10.99-16.83,23.81-31.39,38.3-44.54,24.48-22.08,52.91-39.18,83.9-50.28,6.68-2.39,18.07-5.77,24.75-7.12l10.08-2.04c.14,1.62-.01,2.85-.61,4.24-34.79,10.26-64.99,28.69-89.66,55.38-13.47,14.79-24.67,31.24-33.51,49.63Z"/>
      <path class="cls-5" d="M484.22,651.71c-11.2,5.51-23.11,9.09-35.66,10.71l4.99-10.22c19.89-40.77,58.73-75.1,101.27-91.16l-1.73,8-8.28,5.11c-28.17,17.38-50.08,45.52-60.58,77.56Z"/>
      <path class="cls-5" d="M411.24,590.06c-31.36-19.95-64.74-31.45-101.73-33.5l-1.09-8.55c12.11-.45,23.51.76,35.53,2.36,28.75,4.64,55.9,14.83,81.01,30.2l-13.71,9.49Z"/>
      <path class="cls-5" d="M358.67,638.13c-16.16-12.47-28.81-27.99-37.67-45.91-1.62-3.3-3.02-6.19-4.08-9.82,22.67,7.32,43.43,19.08,61.55,34.71-7.06,6.85-13.47,13.5-19.8,21.03Z"/>
      <path class="cls-5" d="M391.7,605.27l-4.33,3.49c-22.47-17.43-46.62-29.2-73.93-35.36-1.3-3.98-2.16-7.4-2.75-11.46l13.99,2.15c28.03,4.3,53.93,16.2,77.8,32.35l-10.78,8.84Z"/>
      <path class="cls-5" d="M502.26,641.42c6.55-23.07,23.75-46.54,42.11-61.26l6.67-5.35c-.68,2.8-1.38,4.97-2.38,7.47-4.23,10.59-9.59,20.35-16.3,29.67-8.44,11.26-18.21,20.98-30.11,29.46Z"/>
    </g>
    <g>
      <circle class="cls-5" cx="457.38" cy="498.49" r="7.25" transform="translate(-2.26 2.08) rotate(-.26)"/>
      <circle class="cls-5" cx="409.49" cy="498.52" r="7.25" transform="translate(-90.92 905.7) rotate(-89.73)"/>
      <circle class="cls-5" cx="433.42" cy="491.96" r="7.24" transform="translate(-2.21 1.96) rotate(-.26)"/>
      <circle class="cls-5" cx="474.91" cy="516.1" r="7.19" transform="translate(-2.34 2.16) rotate(-.26)"/>
      <circle class="cls-5" cx="391.95" cy="516.1" r="7.21"/>
      <circle class="cls-5" cx="391.21" cy="481.83" r="6.05"/>
      <circle class="cls-5" cx="411.21" cy="471.38" r="6.04"/>
      <circle class="cls-5" cx="433.47" cy="467.76" r="6.04" transform="translate(-2.56 2.39) rotate(-.31)"/>
      <circle class="cls-5" cx="475.58" cy="481.76" r="6.02"/>
      <circle class="cls-5" cx="455.54" cy="471.43" r="6"/>
      <circle class="cls-5" cx="365.08" cy="517.96" r="6.01"/>
      <circle class="cls-5" cx="375.3" cy="497.72" r="5.99"/>
      <circle class="cls-5" cx="501.73" cy="517.87" r="6"/>
      <circle class="cls-5" cx="491.49" cy="497.69" r="5.98" transform="translate(-2.76 2.74) rotate(-.32)"/>
      <path class="cls-5" d="M408.58,451.95c2.68,0,4.85-2.17,4.85-4.85s-2.17-4.85-4.85-4.85-4.85,2.17-4.85,4.85,2.17,4.85,4.85,4.85Z"/>
      <circle class="cls-5" cx="501.14" cy="472" r="4.84"/>
      <path class="cls-5" d="M525.94,520.08c2.66,0,4.82-2.16,4.82-4.82s-2.16-4.82-4.82-4.82-4.82,2.16-4.82,4.82,2.16,4.82,4.82,4.82Z"/>
      <path class="cls-5" d="M453.39,447.1c0,2.66,2.16,4.83,4.82,4.83s4.82-2.16,4.82-4.83-2.16-4.83-4.82-4.83-4.82,2.16-4.82,4.83Z"/>
      <circle class="cls-5" cx="433.44" cy="443.76" r="4.79"/>
      <path class="cls-5" d="M476.49,456.73c0,2.65,2.14,4.79,4.79,4.79s4.79-2.14,4.79-4.79-2.14-4.79-4.79-4.79-4.79,2.14-4.79,4.79Z"/>
      <path class="cls-5" d="M365.72,476.73c2.61,0,4.73-2.12,4.73-4.73s-2.12-4.73-4.73-4.73-4.73,2.12-4.73,4.73,2.12,4.73,4.73,4.73Z"/>
      <path class="cls-5" d="M385.51,461.61c2.65,0,4.8-2.15,4.8-4.81s-2.15-4.81-4.8-4.81-4.8,2.15-4.8,4.81,2.15,4.81,4.8,4.81Z"/>
      <path class="cls-5" d="M340.88,520.05c2.63,0,4.76-2.13,4.76-4.76s-2.13-4.76-4.76-4.76-4.76,2.13-4.76,4.76,2.13,4.76,4.76,4.76Z"/>
      <path class="cls-5" d="M516.37,496.63c2.63,0,4.76-2.13,4.76-4.77s-2.13-4.77-4.76-4.77-4.76,2.13-4.76,4.77,2.13,4.77,4.76,4.77Z"/>
      <circle class="cls-5" cx="350.45" cy="491.86" r="4.75"/>
      <circle class="cls-5" cx="333.89" cy="473.2" r="3.57"/>
      <path class="cls-5" d="M348.74,458.52c1.96,0,3.55-1.59,3.55-3.55s-1.59-3.55-3.55-3.55-3.55,1.59-3.55,3.55,1.59,3.55,3.55,3.55Z"/>
      <path class="cls-5" d="M410.06,425.75c1.96,0,3.55-1.59,3.55-3.55s-1.59-3.55-3.55-3.55-3.55,1.59-3.55,3.55,1.59,3.55,3.55,3.55Z"/>
      <path class="cls-5" d="M456.73,425.72c1.95,0,3.53-1.58,3.53-3.53s-1.58-3.53-3.53-3.53-3.53,1.58-3.53,3.53,1.58,3.53,3.53,3.53Z"/>
      <path class="cls-5" d="M366.86,443.7c1.95,0,3.53-1.58,3.53-3.53s-1.58-3.53-3.53-3.53-3.53,1.58-3.53,3.53,1.58,3.53,3.53,3.53Z"/>
      <path class="cls-5" d="M550.86,520.23c1.97,0,3.57-1.6,3.57-3.57s-1.6-3.57-3.57-3.57-3.57,1.6-3.57,3.57,1.6,3.57,3.57,3.57Z"/>
      <path class="cls-5" d="M532.93,476.74c1.96,0,3.54-1.59,3.54-3.55s-1.59-3.55-3.54-3.55-3.54,1.59-3.54,3.55,1.59,3.55,3.54,3.55Z"/>
      <path class="cls-5" d="M322.74,497.53c1.95,0,3.53-1.58,3.53-3.53s-1.58-3.53-3.53-3.53-3.53,1.58-3.53,3.53,1.58,3.53,3.53,3.53Z"/>
      <path class="cls-5" d="M387.56,432.57c1.95,0,3.53-1.58,3.53-3.53s-1.58-3.53-3.53-3.53-3.53,1.58-3.53,3.53,1.58,3.53,3.53,3.53Z"/>
      <path class="cls-5" d="M544.02,497.6c1.98,0,3.58-1.6,3.58-3.58s-1.6-3.58-3.58-3.58-3.58,1.6-3.58,3.58,1.6,3.58,3.58,3.58Z"/>
      <path class="cls-5" d="M316,520.26c1.95,0,3.53-1.58,3.53-3.53s-1.58-3.53-3.53-3.53-3.53,1.58-3.53,3.53,1.58,3.53,3.53,3.53Z"/>
      <path class="cls-5" d="M499.95,443.65c1.95,0,3.53-1.58,3.53-3.53s-1.58-3.53-3.53-3.53-3.53,1.58-3.53,3.53,1.58,3.53,3.53,3.53Z"/>
      <path class="cls-5" d="M429.85,419.83c0,1.92,1.56,3.48,3.48,3.48s3.48-1.56,3.48-3.48-1.56-3.48-3.48-3.48c0,0,0,0-.01,0-1.92,0-3.47,1.56-3.47,3.48Z"/>
      <path class="cls-5" d="M479.17,432.58c1.95,0,3.52-1.58,3.52-3.52s-1.58-3.52-3.52-3.52-3.52,1.58-3.52,3.52,1.58,3.52,3.52,3.52Z"/>
      <path class="cls-5" d="M518,458.43c1.95,0,3.53-1.58,3.53-3.53s-1.58-3.53-3.53-3.53-3.53,1.58-3.53,3.53,1.58,3.53,3.53,3.53Z"/>
    </g>
  </g>
</svg>