<?xml version="1.0" encoding="UTF-8"?>
<svg id="Camada_1" data-name="Camada 1" xmlns="http://www.w3.org/2000/svg" viewBox="0 0 283.46 283.46">
  <defs>
    <style>
      .cls-1 {
        fill: #ff6500;
      }
    </style>
  </defs>
  <path class="cls-1" d="M202.89,226.24h-94.31c-6.07,0-12.14-2.33-16.34-7l-28.01-28.01c-4.2-4.2-7-10.27-7-16.34v-94.31c0-13.07,10.27-23.34,23.34-23.34h122.32c13.07,0,23.34,10.27,23.34,23.34v122.32c0,13.07-10.27,23.34-23.34,23.34ZM80.57,66.56c-7.94,0-14.01,6.07-14.01,14.01v94.31c0,3.74,1.4,7.47,4.2,9.8l28.01,28.01c2.8,2.8,6.07,4.2,9.8,4.2h94.31c7.94,0,14.01-6.07,14.01-14.01v-122.32c0-7.94-6.07-14.01-14.01-14.01h-122.32Z"/>
  <path class="cls-1" d="M141.73,263.12c-2.8,0-4.67-1.87-4.67-4.67v-36.88c0-2.8,1.87-4.67,4.67-4.67s4.67,1.87,4.67,4.67v36.88c0,2.8-1.87,4.67-4.67,4.67Z"/>
  <path class="cls-1" d="M188.89,263.12c-2.8,0-4.67-1.87-4.67-4.67v-36.88c0-2.8,1.87-4.67,4.67-4.67s4.67,1.87,4.67,4.67v36.88c0,2.8-2.33,4.67-4.67,4.67Z"/>
  <path class="cls-1" d="M258.45,146.4h-36.88c-2.8,0-4.67-1.87-4.67-4.67s1.87-4.67,4.67-4.67h36.88c2.8,0,4.67,1.87,4.67,4.67s-1.87,4.67-4.67,4.67Z"/>
  <path class="cls-1" d="M258.45,193.56h-36.88c-2.8,0-4.67-1.87-4.67-4.67s1.87-4.67,4.67-4.67h36.88c2.8,0,4.67,1.87,4.67,4.67s-1.87,4.67-4.67,4.67Z"/>
  <path class="cls-1" d="M258.45,99.25h-36.88c-2.8,0-4.67-1.87-4.67-4.67s1.87-4.67,4.67-4.67h36.88c2.8,0,4.67,1.87,4.67,4.67s-1.87,4.67-4.67,4.67Z"/>
  <path class="cls-1" d="M141.73,66.56c-2.8,0-4.67-1.87-4.67-4.67V25.01c0-2.8,1.87-4.67,4.67-4.67s4.67,1.87,4.67,4.67v36.88c0,2.33-1.87,4.67-4.67,4.67Z"/>
  <path class="cls-1" d="M94.58,66.56c-2.8,0-4.67-1.87-4.67-4.67V25.01c0-2.8,1.87-4.67,4.67-4.67s4.67,1.87,4.67,4.67v36.88c0,2.33-1.87,4.67-4.67,4.67Z"/>
  <path class="cls-1" d="M188.89,66.56c-2.8,0-4.67-1.87-4.67-4.67V25.01c0-2.8,1.87-4.67,4.67-4.67s4.67,1.87,4.67,4.67v36.88c0,2.33-2.33,4.67-4.67,4.67Z"/>
  <path class="cls-1" d="M61.89,146.4H25.01c-2.8,0-4.67-1.87-4.67-4.67s1.87-4.67,4.67-4.67h36.88c2.8,0,4.67,1.87,4.67,4.67s-2.33,4.67-4.67,4.67Z"/>
  <path class="cls-1" d="M61.89,99.25H25.01c-2.8,0-4.67-1.87-4.67-4.67s1.87-4.67,4.67-4.67h36.88c2.8,0,4.67,1.87,4.67,4.67s-2.33,4.67-4.67,4.67Z"/>
  <path class="cls-1" d="M169.28,135.2c-5.6,0-11.21-2.8-17.74-7.94-.47-.47-.93-1.4-1.4-1.87-3.27-9.8-1.4-19.61,5.14-26.15,9.34-8.87,26.61-9.8,45.29-2.33,1.4.47,2.33,1.87,2.8,3.27s0,3.27-.93,4.2c-2.8,3.27-5.6,7.47-8.4,11.21-6.07,8.87-12.61,18.21-22.41,19.61h-2.33ZM159.01,121.19c4.67,3.74,8.4,5.14,11.67,4.67,5.6-.93,10.74-7.94,15.87-15.41,1.4-2.33,3.27-4.67,4.67-7-12.61-3.74-23.34-2.8-29.41,2.8-3.74,3.27-4.67,8.87-2.8,14.94Z"/>
  <path class="cls-1" d="M141.73,191.69c-2.33,0-4.2-1.87-4.67-4.2-.93-5.6-.47-46.69,12.61-66.77,1.4-1.87,3.74-2.8,5.6-1.87,2.33.93,3.27,3.74,2.33,6.07,0,.47-.47.47-.47.93-11.21,17.74-11.67,56.03-11.21,60.23.47,2.33-1.4,5.14-3.74,5.14,0,.47-.47.47-.47.47Z"/>
  <path class="cls-1" d="M111.85,163.68c-1.4,0-2.8,0-3.74-.47-12.61-2.8-23.81-20.54-28.01-35.95-.47-1.4,0-2.33.47-3.74.47-.93,1.87-1.87,2.8-2.33,19.61-5.14,39.22-.47,45.75,11.21,4.67,7.47,3.27,15.87-3.74,23.81-4.67,6.07-9.8,7.47-13.54,7.47h0ZM90.37,129.59c4.2,12.14,12.61,22.88,19.61,24.28,1.87.47,4.67.47,8.4-3.74,4.2-5.14,5.14-9.34,2.8-13.07-3.74-5.6-15.87-9.8-30.81-7.47h0Z"/>
  <path class="cls-1" d="M141.73,191.69h-1.4c-2.8-.93-3.27-2.33-7-10.74-2.33-5.6-8.4-20.08-11.67-22.41-2.33-.47-4.2-2.8-3.74-5.14s2.8-4.2,5.14-4.2c6.54.93,11.21,9.8,18.68,28.01.93,2.33,2.33,5.14,2.8,6.54.93.93,1.4,2.8.93,4.67,0,1.87-1.87,3.27-3.73,3.27h0Z"/>
</svg>