<?xml version="1.0" encoding="UTF-8"?>
<svg id="Camada_1" data-name="Camada 1" xmlns="http://www.w3.org/2000/svg" viewBox="0 0 283.46 283.46">
  <defs>
    <style>
      .cls-1 {
        fill: #ff6500;
      }
    </style>
  </defs>
  <path class="cls-1" d="M130.51,130.48l1.84-3.36c1.65-3.01,4.1-5.47,7.12-7.12l3.36-1.84c.67-.36,1.08-1.06,1.08-1.82s-.41-1.46-1.08-1.82l-3.36-1.84c-3.01-1.64-5.47-4.1-7.12-7.12l-1.84-3.37c-.36-.67-1.06-1.08-1.82-1.08s-1.46.41-1.82,1.08l-1.84,3.37c-1.65,3.01-4.11,5.47-7.12,7.12l-3.36,1.84c-.67.36-1.08,1.06-1.08,1.82s.41,1.46,1.08,1.82l3.36,1.84c3.01,1.65,5.47,4.11,7.12,7.12l1.84,3.37c.37.66,1.06,1.08,1.82,1.08s1.46-.41,1.82-1.08ZM119.9,116.35l-.04-.02.04-.02c3.71-2.03,6.74-5.06,8.77-8.77l.03-.04.02.04c2.03,3.71,5.06,6.74,8.77,8.77l.04.02-.04.02c-3.71,2.03-6.74,5.06-8.77,8.77l-.02.04-.02-.04c-2.03-3.71-5.06-6.74-8.77-8.77Z"/>
  <path class="cls-1" d="M147.2,92.5l3.71,2.03c3.36,1.84,6.1,4.58,7.94,7.94l2.03,3.71c.36.67,1.06,1.08,1.82,1.08s1.46-.41,1.82-1.08l2.03-3.71c1.84-3.36,4.58-6.1,7.94-7.94l3.71-2.03c.66-.36,1.08-1.06,1.08-1.82s-.41-1.46-1.08-1.82l-3.71-2.03c-3.36-1.84-6.11-4.59-7.94-7.94l-2.03-3.71c-.73-1.33-2.91-1.33-3.64,0l-2.03,3.71c-1.84,3.36-4.58,6.1-7.94,7.94l-3.71,2.03c-.67.36-1.08,1.06-1.08,1.82s.41,1.46,1.08,1.82ZM152.9,90.47c4.05-2.22,7.37-5.54,9.59-9.59l.21-.39.21.39c2.21,4.05,5.53,7.37,9.59,9.59l.39.21-.39.21c-4.06,2.22-7.38,5.53-9.59,9.59l-.21.39-.21-.39c-2.22-4.06-5.54-7.38-9.59-9.59l-.39-.21.39-.21Z"/>
  <path class="cls-1" d="M225.29,219.28l-4.42-2.41c-3.99-2.19-7.26-5.45-9.45-9.45l-2.42-4.42c-.86-1.58-3.46-1.58-4.33,0l-2.42,4.42c-2.18,4-5.45,7.26-9.44,9.45l-4.42,2.41c-.79.43-1.29,1.26-1.29,2.17s.49,1.73,1.29,2.17l4.42,2.41c4,2.19,7.26,5.45,9.45,9.45l2.41,4.42c.43.79,1.26,1.29,2.16,1.29s1.73-.49,2.16-1.28l2.42-4.42c2.19-3.99,5.45-7.26,9.45-9.45l4.42-2.41c.79-.43,1.29-1.27,1.29-2.17s-.49-1.73-1.29-2.17ZM218.5,221.7c-4.82,2.64-8.77,6.59-11.4,11.41l-.26.46-.25-.46c-2.63-4.82-6.58-8.77-11.41-11.41l-.46-.25.46-.25c4.83-2.64,8.77-6.59,11.41-11.41l.25-.46.25.46c2.64,4.82,6.58,8.77,11.41,11.41l.46.25-.46.26Z"/>
  <path class="cls-1" d="M238.2,134.06c0-7.72-6.33-14-14.1-14-2.7,0-5.22.77-7.36,2.08-3.18-3.37-6.63-6.77-10.32-10.17,27.77-25.64,39.56-48.34,31.48-60.88-8.39-13.03-34.13-10.42-63.86.79-10.6-6.95-23.11-10.29-36.09-9.47-10.34.64-19.97,4.08-28.25,9.49-32.59-12.3-56.57-12.6-64.16-.81-2.51,3.89-3.13,8.79-1.86,14.57,2.83,12.82,15.09,29.43,33.34,46.3-3.42,3.16-6.66,6.34-9.68,9.51-1.86-.89-3.93-1.41-6.13-1.41-7.78,0-14.1,6.28-14.1,14,0,3.38,1.21,6.48,3.23,8.91,0,.01-.02.02-.03.03-7.63,12.52-9.27,22.84-4.76,29.84,3.74,5.81,11.32,8.69,21.91,8.69,11.55,0,26.7-3.48,44.29-10.31.17,1.43.28,2.88.34,4.34h-.78c-5.44,0-9.87,4.43-9.87,9.87,0,4.47,3.01,8.21,7.09,9.42v21.11c0,4.94,4.02,8.95,8.95,8.95h.49v3.3c0,6.34,5.16,11.51,11.51,11.51h24.49c6.34,0,11.51-5.16,11.51-11.51v-3.3h.49c4.94,0,8.95-4.02,8.95-8.95v-21.1c4.09-1.21,7.09-4.95,7.09-9.42,0-5.44-4.43-9.87-9.87-9.87h-.78c.06-1.45.17-2.89.34-4.31,17.16,6.65,32.48,10.2,44.27,10.2,10.47,0,18.17-2.78,21.92-8.61,4.37-6.78,2.94-16.68-4.07-28.67,2.69-2.55,4.37-6.14,4.37-10.11ZM233.27,134.06c0,5-4.11,9.07-9.17,9.07s-9.17-4.07-9.17-9.07,4.11-9.07,9.17-9.07,9.17,4.07,9.17,9.07ZM233.76,53.76c6.5,10.1-5.67,31.57-31,54.89-.69-.61-1.36-1.22-2.06-1.83.16-1.76.25-3.53.25-5.32,0-16.28-6.81-32.01-18.67-43.16-1.14-1.08-2.33-2.08-3.54-3.06,28.51-10.19,49.33-10.37,55.03-1.53ZM87.99,108.82c10.44-8.88,22.31-17.58,35.16-25.71,17.95-11.36,34.99-19.89,50.13-25.78,1.95,1.4,3.84,2.93,5.62,4.61,11.04,10.37,17.11,24.42,17.11,39.56,0,13.77-5.16,26.89-14.54,36.96-6.74,7.24-11.33,16.2-13.57,25.97-13.76-5.75-28.91-13.58-44.77-23.62-12.23-7.73-23.6-16.07-33.61-24.49-.69-2.45-1.2-4.96-1.54-7.51ZM138.27,47.33c10.7-.66,21.01,1.73,30.03,6.81-15.71,6.39-32.26,14.98-47.78,24.8-11.95,7.56-23.03,15.61-32.98,23.86-.03-1.15-.08-2.29-.04-3.45,1.06-27.47,23.36-50.32,50.77-52.02ZM48.52,64.6c-.98-4.44-.58-8.09,1.18-10.84,5.93-9.21,26.95-8.52,55.18,1.64-13.01,10.47-21.65,26.23-22.32,43.76-.1,2.58-.02,5.14.2,7.67-.68.59-1.35,1.19-2.02,1.78-17.63-16.24-29.61-32.18-32.23-44.02ZM61.23,124.99c5.06,0,9.17,4.07,9.17,9.07s-4.11,9.07-9.17,9.07-9.17-4.07-9.17-9.07,4.11-9.07,9.17-9.07ZM49.71,170.17c-4.2-6.53.01-16.53,4.47-24,2.08,1.2,4.48,1.9,7.05,1.9,7.77,0,14.1-6.28,14.1-14.01,0-3.75-1.5-7.15-3.93-9.67,2.92-3.04,6.02-6.08,9.31-9.11,1.47,1.3,2.95,2.6,4.48,3.9,2.62,8.42,7.12,16.19,13.33,22.81,6.25,6.66,10.46,15.04,12.41,24.27-30.93,12.18-54.91,13.74-61.23,3.91ZM160.55,228.21c0,3.62-2.95,6.57-6.57,6.57h-24.49c-3.63,0-6.57-2.95-6.57-6.57v-3.3h37.64v3.3ZM165.98,219.98h-48.49c-2.22,0-4.02-1.8-4.02-4.02v-20.66h56.53v20.66c0,2.22-1.8,4.02-4.02,4.02ZM177.09,185.43c0,2.72-2.21,4.93-4.93,4.93h-60.84c-2.72,0-4.94-2.21-4.94-4.93s2.21-4.94,4.94-4.94h60.84c2.72,0,4.93,2.22,4.93,4.94ZM166.44,175.56h-49.41c-.55-14.13-5.76-27.19-14.91-36.95-3.68-3.93-6.7-8.3-9.03-12.99,8.41,6.63,17.62,13.16,27.41,19.36,16.03,10.15,31.85,18.35,46.49,24.39-.29,2.04-.47,4.1-.56,6.19ZM233.76,170.17c-6.1,9.47-29.56,8.59-61.23-3.85,1.97-9.24,6.23-17.69,12.55-24.48,7.64-8.22,12.72-18.3,14.79-29.14,4.77,4.25,9.18,8.51,13.15,12.72-1.9,2.38-3.04,5.39-3.04,8.66,0,7.72,6.33,14.01,14.1,14.01,2,0,3.9-.42,5.62-1.17,4.26,7.32,8.12,16.94,4.04,23.27Z"/>
</svg>