<?xml version="1.0" encoding="UTF-8"?>
<svg id="Camada_1" data-name="Camada 1" xmlns="http://www.w3.org/2000/svg" viewBox="0 0 283.46 283.46">
  <defs>
    <style>
      .cls-1 {
        fill: #ff6500;
      }
    </style>
  </defs>
  <path class="cls-1" d="M264.67,34.65c-.29-1.56-1.51-2.78-3.07-3.07-2.36-.43-58.42-10.15-92.55,22.04-7.66,6.73-13.65,15.15-17.5,24.6-.79,1.97.16,4.21,2.13,5,1.97.79,4.21-.16,5-2.13.03-.07.05-.13.07-.2,3.44-8.33,8.77-15.74,15.56-21.66,23.29-22.01,59.27-22.42,76.31-21.16-7.5,5.94-13.8,13.24-18.57,21.52-1.93,3.81-3.64,7.73-5.12,11.74-4.49,11.4-10.08,25.59-21.33,33.58-4.49,3.27-9.46,5.83-14.72,7.58-2.02.64-3.14,2.8-2.5,4.82.51,1.6,1.99,2.69,3.67,2.68.4,0,.79-.06,1.17-.18,6.02-2,11.7-4.92,16.83-8.65,13.11-9.32,19.16-24.69,24.03-37.03,1.36-3.71,2.93-7.35,4.7-10.89,6.04-9.94,14.28-18.36,24.09-24.62,1.37-.83,2.09-2.41,1.8-3.99h0Z"/>
  <path class="cls-1" d="M98.74,62.03c.92,2.3,1.72,4.65,2.39,7.04.48,1.63,1.98,2.76,3.68,2.76.37,0,.74-.05,1.1-.16,2.03-.6,3.19-2.74,2.59-4.77,0,0,0,0,0,0-.74-2.69-1.64-5.32-2.7-7.9-3.12-6.82-7.43-13.02-12.75-18.31,13.97.42,40.16,3.62,57.18,20.55,1.51,1.5,3.94,1.49,5.44-.02,1.5-1.51,1.49-3.94-.02-5.44-26.54-26.38-70.96-22.8-72.85-22.61-2.11.18-3.68,2.04-3.5,4.15.09,1.1.66,2.11,1.55,2.76,7.57,5.85,13.69,13.35,17.89,21.94h0Z"/>
  <path class="cls-1" d="M173.7,91.45c1.09,0,2.14-.46,2.86-1.28,3.81-4.25,8.51-8.97,13.22-13.29,10.76-9.62,22.54-18.04,35.13-25.11,1.87-1.01,2.57-3.34,1.56-5.21-1.01-1.87-3.34-2.57-5.21-1.56-13.16,7.35-25.47,16.15-36.68,26.23-4.89,4.48-9.77,9.39-13.74,13.84-1.42,1.58-1.29,4.01.29,5.43.7.63,1.62.98,2.56.98v-.03Z"/>
  <path class="cls-1" d="M117.34,55.35c-1.21,1.74-.79,4.14.95,5.36,6.9,4.97,13.41,10.45,19.47,16.4,1.53,1.47,3.97,1.42,5.43-.11,1.43-1.5,1.42-3.86-.02-5.34-6.37-6.26-13.21-12.03-20.46-17.24-1.74-1.23-4.14-.81-5.37.93,0,0,0,0-.01.01h0Z"/>
  <path class="cls-1" d="M107.69,75.68c-49.13,0-88.96,39.83-88.96,88.96s39.83,88.96,88.96,88.96,88.96-39.83,88.96-88.96c-.06-49.11-39.85-88.9-88.96-88.96h0ZM141.77,103.54l-6.66-10.12,4.87-3.33c7.36,3.22,14.2,7.5,20.3,12.72l-9.22,4.25c-.71.33-1.3.87-1.69,1.54l-4.61,7.69-4.45-1.33,2-8.39c.25-1.04.06-2.14-.54-3.03h0ZM96.79,113.24c.78.86,1.91,1.32,3.07,1.24l9.22-.56-2.61,15.68c-.1.61-.06,1.24.14,1.82l2.66,8.13-10.49,3.65c-2.01.7-3.07,2.9-2.37,4.9.12.33.27.64.47.93l6.79,9.74-3.46,10.76c-.65,2.02.46,4.19,2.48,4.83.09.03.19.06.29.08l28.46,6.77,5.54,14.71-14.95,33.52h-4.9l-11.19-28.85c-.47-1.2-1.51-2.09-2.77-2.36l-8.86-1.93-1.73-30.97c-.12-2.12-1.94-3.74-4.07-3.62-.43.03-.86.12-1.26.29l-12.1,5.08-17.77-20.86c-1.06-1.24-2.78-1.68-4.3-1.09l-26.07,10.09c.55-4.91,1.56-9.77,3-14.5l5.69,1.32c1.41.33,2.89-.16,3.82-1.28l10.76-12.89h15.05c2.04,0,3.73-1.6,3.84-3.64l.88-16.55,9.74-.47c.88-.04,1.72-.38,2.37-.97l9.61-8.56,5.38,3.2-1.33,9.18c-.17,1.15.19,2.31.97,3.16h0ZM107.69,245.9c-44.86-.05-81.21-36.4-81.26-81.26,0-.32.05-.64.05-.96l26.83-10.36,17.82,20.92c1.09,1.26,2.88,1.68,4.41,1.02l9.68-4.06,1.61,28.42c.09,1.72,1.33,3.17,3.02,3.54l9.7,2.12,11.39,29.38c.57,1.48,2,2.45,3.59,2.45h10.01c1.52,0,2.89-.89,3.51-2.28l16.6-37.21c.42-.93.45-1.98.09-2.93l-6.82-18.1c-.45-1.19-1.47-2.09-2.71-2.38l-26.41-6.31,2.77-8.61c.36-1.14.17-2.39-.51-3.38l-4.98-7.13,9.27-3.23c1.98-.69,3.04-2.83,2.39-4.82l-3.54-10.82,3.25-19.5c.19-1.15-.15-2.33-.93-3.2-.78-.86-1.91-1.32-3.07-1.27l-9.34.56,1.02-7.04c.21-1.53-.51-3.03-1.83-3.82l-10.01-5.96c-1.44-.85-3.27-.68-4.52.44l-10.7,9.53-11.84.58c-1.97.09-3.55,1.66-3.65,3.63l-.87,16.4h-13.2c-1.14,0-2.22.51-2.95,1.38l-10.41,12.41-2.48-.57c15.94-38.53,58.51-58.7,98.43-46.64l-3.46,2.37c-1.73,1.19-2.18,3.54-1.02,5.29l7.84,11.9-2.46,10.31c-.46,1.98.7,3.97,2.64,4.55l10.8,3.22c.36.11.73.16,1.1.16,1.35,0,2.6-.71,3.3-1.87l5.53-9.22,10.96-5.04c2.08,2.18,4.03,4.47,5.86,6.87-11.88,5.27-12.05,5.48-12.76,6.53-2.02,5.15-3.59,10.46-4.67,15.89-.26.94-.15,1.95.31,2.81l11.17,21.01c1,1.87,3.32,2.58,5.19,1.6l7.33-3.88,9.91,11.43c-3.23,42.34-38.49,75.07-80.96,75.13h0ZM188.66,159.06l-6.11-7.05c-1.17-1.35-3.12-1.72-4.7-.88l-6.66,3.52-8.66-16.29c1.14-4.17,2.56-9.26,3.24-11.64,2.05-.98,6.42-2.95,10.82-4.91,7.03,11.24,11.18,24.03,12.08,37.25h-.02Z"/>
</svg>